<svg width="512" height="512" viewBox="0 0 512 512" fill="none" xmlns="http://www.w3.org/2000/svg">
<rect width="512" height="512" rx="120" fill="#111113"/>
<path d="M60.6591 151.545H107.091L169.273 303.318H171.727L233.909 151.545H280.341V361H243.932V217.102H241.989L184.102 360.386H156.898L99.0114 216.795H97.0682V361H60.6591V151.545ZM389.568 364.068C373.818 364.068 360.216 360.795 348.761 354.25C337.375 347.636 328.614 338.295 322.477 326.227C316.341 314.091 313.273 299.807 313.273 283.375C313.273 267.216 316.341 253.034 322.477 240.83C328.682 228.557 337.341 219.011 348.455 212.193C359.568 205.307 372.625 201.864 387.625 201.864C397.307 201.864 406.443 203.432 415.034 206.568C423.693 209.636 431.33 214.409 437.943 220.886C444.625 227.364 449.875 235.614 453.693 245.636C457.511 255.591 459.42 267.455 459.42 281.227V292.58H330.659V267.625H423.932C423.864 260.534 422.33 254.227 419.33 248.705C416.33 243.114 412.136 238.716 406.75 235.511C401.432 232.307 395.227 230.705 388.136 230.705C380.568 230.705 373.92 232.545 368.193 236.227C362.466 239.841 358 244.614 354.795 250.545C351.659 256.409 350.057 262.852 349.989 269.875V291.659C349.989 300.795 351.659 308.636 355 315.182C358.341 321.659 363.011 326.636 369.011 330.114C375.011 333.523 382.034 335.227 390.08 335.227C395.466 335.227 400.341 334.477 404.705 332.977C409.068 331.409 412.852 329.125 416.057 326.125C419.261 323.125 421.682 319.409 423.318 314.977L457.886 318.864C455.705 328 451.545 335.977 445.409 342.795C439.341 349.545 431.568 354.795 422.091 358.545C412.614 362.227 401.773 364.068 389.568 364.068ZM435.795 151.545V174.148H337.409V151.545H435.795Z" fill="#FCFCFD"/>
</svg>
